<svg xmlns="http://www.w3.org/2000/svg" xmlns:svg="http://www.w3.org/2000/svg" id="svg3391" width="89.943" height="90" version="1.1"><metadata id="metadata3396"/><g id="layer1" transform="translate(-355.01274,-462.36217)"><path id="path6170" d="m 444.95537,530.83389 c 0,2.76099 -1.75399,5.88098 -4.99998,7.11697 -3.24599,1.23599 -31.49987,12.38995 -35.33285,13.52794 -3.83299,1.138 -5.34298,1.217 -8.50097,0 -3.15798,-1.21699 -33.46486,-12.16295 -36.10885,-13.52894 -2.64399,-1.36599 -4.99998,-4.35498 -4.99998,-7.11697 l 0,-63.47074 c 0,-2.76099 2.23899,-4.99998 4.99998,-4.99998 l 79.94267,0 c 2.76099,0 4.99998,2.23899 4.99998,4.99998 l 0,63.47174 z" style="fill:#31b7da"/><g id="g3087" transform="matrix(0.36487464,0,0,0.36487464,347.51258,448.74735)"><path style="fill:none;fill-rule:evenodd;stroke:#fff;stroke-width:13.70333672;stroke-linecap:round;stroke-linejoin:round;stroke-miterlimit:4;stroke-dasharray:none;stroke-opacity:1" id="path4151" d="m 143.77507,249.85139 -92.414721,-34.59628 0,-116.110796 92.414721,-34.122362 90.51903,34.122362 0,116.110796 z"/><path style="fill:none;fill-rule:evenodd;stroke:#fff;stroke-width:13.70333672;stroke-linecap:round;stroke-linejoin:round;stroke-miterlimit:4;stroke-dasharray:none;stroke-opacity:1" id="path4155" d="m 78.373883,200.56354 65.401187,-19.43079 66.34903,18.00902"/><path style="fill:none;fill-rule:evenodd;stroke:#fff;stroke-width:13.70333672;stroke-linecap:round;stroke-linejoin:round;stroke-miterlimit:4;stroke-dasharray:none;stroke-opacity:1" id="path4157" d="m 143.77507,181.60667 0.47392,-93.362556"/></g></g></svg>