<svg xmlns="http://www.w3.org/2000/svg" width="24" height="24" viewBox="0 0 24 24"><g transform="matrix(1, 0, 0, 1, -74.657997, -269.795013)"><path id="path3384" d="M 86.658 281.795 L 74.658 281.795 L 74.658 272.195 C 74.658 270.895 75.758 269.795 77.058 269.795 L 86.658 269.795 L 86.658 281.795 L 86.658 281.795 Z" style="fill:#81b0dc"/><path id="path3390" d="M 98.658 281.795 L 86.658 281.795 L 86.658 269.795 L 96.258 269.795 C 97.558 269.795 98.658 270.895 98.658 272.195 L 98.658 281.795 Z" style="fill:#dce8f3"/><path id="path3390-9" d="M 86.658 293.795 L 86.658 281.795 L 74.658 281.795 L 74.658 291.395 C 74.658 292.695 75.758 293.795 77.058 293.795 L 86.658 293.795 Z" style="fill:#dce8f3"/><path id="path3384-2" d="M 98.658 291.395 L 98.658 281.795 L 86.658 281.795 L 86.658 293.795 L 96.258 293.795 C 97.558 293.795 98.658 292.695 98.658 291.395 Z" style="fill:#81b0dc"/></g></svg>